<svg width="155" height="48" fill="none" xmlns="http://www.w3.org/2000/svg"><path d="M1.454.586c0 8.418 6.784 15.239 15.15 15.239 0-8.416-6.781-15.24-15.15-15.24zM33.86 23.445c-1.302 2.249-2.104 4.83-2.104 7.622 2.774 0 5.337-.806 7.57-2.116a15.16 15.16 0 01-5.467-5.506zm10.944 0c1.302-2.25 2.1-4.83 2.1-7.62-2.774 0-5.339.804-7.573 2.113a15.145 15.145 0 015.473 5.507z" fill="#009BDB"/><path d="M39.331 17.937c-2.234-1.309-4.802-2.113-7.575-2.113 0 2.79.802 5.37 2.103 7.621a15.125 15.125 0 015.472-5.508zm-.005 11.014c2.24 1.31 4.802 2.116 7.573 2.116h.005c0-2.793-.799-5.373-2.1-7.622a15.126 15.126 0 01-5.478 5.506z" fill="#8DC63F"/><path d="M44.804 23.445a15.151 15.151 0 00-5.472-5.508 15.129 15.129 0 00-5.472 5.508 15.157 15.157 0 005.467 5.506 15.13 15.13 0 005.477-5.506z" fill="#00A84F"/><path d="M54.48 17.937c-2.235-1.309-4.8-2.113-7.576-2.113 0 2.79.804 5.37 2.103 7.621a15.17 15.17 0 015.472-5.508zm0 11.017c2.236 1.307 4.795 2.113 7.567 2.113h.007c0-2.792-.799-5.373-2.102-7.622a15.163 15.163 0 01-5.473 5.51z" fill="#009BDB"/><path d="M59.952 23.445c1.303-2.25 2.103-4.83 2.103-7.62-2.774 0-5.337.804-7.575 2.113a15.13 15.13 0 015.472 5.507zm-10.945 0c-1.298 2.249-2.103 4.83-2.103 7.622h.008c2.773 0 5.333-.807 7.567-2.113a15.204 15.204 0 01-5.472-5.509z" fill="#8DC63F"/><path d="M59.952 23.445a15.132 15.132 0 00-5.472-5.508 15.171 15.171 0 00-5.473 5.508 15.205 15.205 0 005.473 5.51 15.172 15.172 0 005.472-5.51z" fill="#00A84F"/><path d="M24.181 17.94c-2.237-1.312-4.804-2.116-7.578-2.116 0 2.79.805 5.37 2.103 7.62a15.143 15.143 0 015.476-5.505zm0 11.011c2.234 1.31 4.796 2.116 7.57 2.116h.005c0-2.793-.801-5.373-2.1-7.622a15.203 15.203 0 01-5.475 5.506z" fill="#009BDB"/><path d="M29.656 23.445c1.299-2.25 2.1-4.83 2.1-7.62-2.773 0-5.338.804-7.575 2.114a15.132 15.132 0 015.475 5.506zm-10.95 0c-1.298 2.249-2.103 4.83-2.103 7.622h.006c2.77 0 5.336-.806 7.572-2.116a15.162 15.162 0 01-5.475-5.506z" fill="#8DC63F"/><path d="M29.656 23.445a15.134 15.134 0 00-5.474-5.505 15.137 15.137 0 00-5.476 5.505 15.16 15.16 0 005.476 5.507 15.203 15.203 0 005.474-5.507z" fill="#00A84F"/><path d="M3.556 23.445c-1.302 2.249-2.103 4.83-2.103 7.622h.005c2.774 0 5.339-.806 7.573-2.116a15.14 15.14 0 01-5.475-5.506zm10.947 0c1.301-2.25 2.1-4.83 2.1-7.62-2.773 0-5.338.804-7.572 2.113a15.145 15.145 0 015.472 5.507z" fill="#009BDB"/><path d="M9.03 28.951c2.235 1.31 4.8 2.116 7.573 2.116 0-2.793-.799-5.373-2.1-7.622a15.152 15.152 0 01-5.472 5.506zm0-11.014c-2.238-1.309-4.8-2.113-7.577-2.113 0 2.79.802 5.37 2.103 7.621a15.136 15.136 0 015.475-5.508z" fill="#8DC63F"/><path d="M14.503 23.445a15.152 15.152 0 00-5.472-5.508 15.137 15.137 0 00-5.475 5.508 15.142 15.142 0 005.475 5.506 15.154 15.154 0 005.472-5.506z" fill="#00A84F"/><path d="M62.054 46.303c0-8.417-6.779-15.236-15.15-15.236 0 8.416 6.781 15.236 15.142 15.236" fill="#8DC63F"/><path d="M85.253 31.067c-1.36 0-1.898-.547-1.898-1.684v-7.206c0-3.047-1.276-4.186-3.626-4.186-1.755 0-3.767 1.453-3.767 4.331v8.745h-.735c-1.272 0-1.811-.547-1.811-1.684V10.557h.764c1.16 0 1.843.511 1.843 1.94v5.723c1.104-2.048 2.689-2.68 4.073-2.68 3.6 0 5.835 1.995 5.835 6.55v8.977h-.678zm25.071 0c-.986 0-1.694-.688-1.694-1.911v-6.72c0-3.192-1.189-4.444-3.257-4.444-2.493 0-3.543 1.28-3.543 4.355v8.72h-.874c-1.248 0-1.726-.688-1.726-1.911v-6.72c0-2.76-1.219-4.444-3.399-4.444-2.234 0-3.397 1.337-3.397 4.443v8.632h-.822c-1.074 0-1.785-.631-1.785-1.911V22.09c0-3.502 2.213-6.551 6.175-6.551 2.239 0 3.765 1 4.7 2.761.989-1.646 2.774-2.761 4.756-2.761 3.765 0 5.778 2.28 5.778 6.807v8.72h-.912zm25.307 0c-.988 0-1.694-.688-1.694-1.911v-6.72c0-3.192-1.194-4.444-3.262-4.444-2.491 0-3.535 1.28-3.535 4.355v8.72h-.877c-1.248 0-1.729-.688-1.729-1.911v-6.72c0-2.76-1.221-4.444-3.399-4.444-2.236 0-3.399 1.337-3.399 4.443v8.632h-.82c-1.077 0-1.78-.631-1.78-1.911V22.09c0-3.502 2.207-6.551 6.173-6.551 2.234 0 3.762 1 4.697 2.761.989-1.646 2.776-2.761 4.753-2.761 3.77 0 5.777 2.28 5.777 6.807v8.72h-.905zm16.641 0c-1.36 0-1.897-.547-1.897-1.684v-7.206c0-3.047-1.274-4.186-3.626-4.186-1.75 0-3.762 1.453-3.762 4.331v8.745h-.737c-1.275 0-1.815-.547-1.815-1.684V10.557h.77c1.154 0 1.838.511 1.838 1.94v5.723c1.103-2.048 2.688-2.68 4.075-2.68 3.591 0 5.833 1.995 5.833 6.55v8.977h-.679zm-75.414 7.954c.476.37.714.935.714 1.696 0 .804-.249 1.395-.747 1.771-.498.377-1.18.565-2.045.565h-1.069v2.93h-.654v-7.516h1.756c.887 0 1.568.185 2.045.554zm-.519 3.089c.364-.271.546-.732.546-1.383 0-.614-.177-1.055-.53-1.322-.352-.267-.87-.4-1.553-.4H73.71v3.51h1.069c.676 0 1.196-.134 1.56-.405zm6.288-1.202c.426.523.639 1.253.639 2.189 0 .929-.217 1.662-.65 2.2-.432.537-1.023.806-1.772.806-.756 0-1.347-.265-1.772-.795-.426-.531-.638-1.26-.638-2.19 0-.606.098-1.137.294-1.59.197-.454.476-.801.84-1.043.364-.24.793-.361 1.287-.361.756 0 1.347.261 1.772.784zm-3.06.379c-.305.416-.457 1.028-.457 1.832 0 .797.15 1.404.452 1.821.302.417.729.625 1.282.625s.983-.208 1.292-.625c.309-.417.464-1.031.464-1.843 0-.797-.151-1.403-.453-1.816-.302-.413-.733-.62-1.292-.62-.553 0-.982.209-1.287.626zm5.765 4.542c-.178-.183-.267-.453-.267-.812v-7.11l.632-.076v7.164c0 .373.153.56.459.56a.92.92 0 00.393-.077l.174.472a1.445 1.445 0 01-.654.153c-.314 0-.559-.091-.737-.274zm6.49-.472c.076.132.198.23.365.296l-.141.45c-.262-.05-.464-.15-.606-.296-.141-.146-.234-.37-.278-.669-.393.644-.985.965-1.778.965-.545 0-.976-.155-1.292-.466-.316-.31-.474-.726-.474-1.245 0-.593.209-1.05.627-1.372.418-.321.998-.482 1.74-.482h1.09v-.56c0-.46-.102-.795-.306-1.004-.203-.208-.541-.312-1.013-.312-.437 0-.954.11-1.549.329l-.164-.483c.64-.256 1.24-.384 1.8-.384 1.243 0 1.864.608 1.864 1.822v2.764c0 .3.039.516.115.647zm-.747-.779v-1.58h-.993c-.582 0-1.025.114-1.33.34-.305.227-.458.568-.458 1.021 0 .395.105.699.316.91.21.213.505.319.883.319.684 0 1.211-.337 1.582-1.01zm6.635-3.993c.274.307.41.738.41 1.294v4.104h-.633v-4.016c0-.46-.09-.797-.273-1.01-.182-.211-.45-.317-.807-.317-.364 0-.686.1-.965.302-.28.2-.547.495-.802.883v4.158h-.633v-5.738h.545l.066.976a2.69 2.69 0 01.829-.806c.32-.194.68-.29 1.08-.29.517-.001.912.152 1.184.46zm6.736-2.678v8.076h-.545l-.077-.878c-.392.665-.964.998-1.712.998-.662 0-1.183-.265-1.566-.795-.381-.53-.572-1.253-.572-2.167 0-.593.089-1.116.268-1.57.177-.453.435-.807.774-1.064a1.92 1.92 0 011.194-.383c.648 0 1.182.26 1.603.779V37.83l.633.076zm-1.314 7.406c.25-.175.477-.442.681-.8v-2.996c-.407-.578-.905-.867-1.494-.867-.516 0-.925.216-1.227.648-.302.431-.449 1.042-.441 1.832 0 .79.138 1.395.414 1.816.276.42.658.63 1.145.63.363 0 .67-.087.922-.263z" fill="#767981"/></svg>